<?xml version="1.0" encoding="utf-8"?>
<svg width="128px" height="128px" viewBox="0 0 1280 1280" preserveAspectRatio="xMidYMid meet" xmlns="http://www.w3.org/2000/svg">
  <rect style="fill: rgb(202, 1, 1);" x="499.491" y="698.404" width="287.789" height="220.074"/>
  <g id="layer1" fill="#000000" stroke="none">
    <path d="M 252 1255 C 197 1209 160 1142 160 1089 C 160 995 249 704 325 547 C 366 463 387 447 475 434 C 503 430 528 422 532 416 C 543 399 541 312 530 305 C 517 297 517 237 531 223 C 538 216 537 201 525 174 C 503 122 503 43 524 22 C 548 -3 732 -3 756 22 C 777 43 777 122 755 174 C 743 201 742 216 749 223 C 763 237 763 297 750 305 C 739 312 737 399 748 416 C 752 422 778 430 805 434 C 893 447 914 463 955 547 C 1031 704 1120 995 1120 1089 C 1120 1142 1083 1209 1028 1255 L 998 1280 L 640 1280 L 282 1280 L 252 1255 Z" style="stroke: rgb(118, 146, 26); stroke-width: 0;"/>
    <path d="M 703 198 C 706 180 714 144 721 117 C 738 54 728 45 640 45 C 552 45 542 54 559 117 C 566 144 574 180 577 198 C 581.193 224.838 582.573 229.167 616.535 229.866 C 623.067 230 630.805 230 640 230 C 697 230 698 230 703 198 Z" style="stroke: rgb(118, 146, 26); fill: rgb(78, 50, 7); stroke-width: 0;"/>
    <path d="M 1015 1199 C 1076 1131 1083 1104 1064 1013 C 1042 903 970 689 921 588 C 878 497 857 480 789 480 C 781.106 480 773.389 479.293 766.021 477.967 C 734.187 472.235 708.872 454.925 704 433 C 700 420 700 378 702 340 L 706 270 L 640 270 L 574 270 L 578 340 C 580 378 580 420 576 433 C 570 460 533 480 491 480 C 423 480 402 497 359 588 C 310 689 238 903 216 1013 C 197 1104 204 1131 265 1199 L 302 1240 L 640 1240 L 978 1240 L 1015 1199 Z" style="stroke: rgb(118, 146, 26); fill: rgb(189, 103, 5); stroke-width: 0;"/>
    <path d="M294 1208 c-10 -16 21 -36 94 -58 180 -56 370 -52 539 11 40 16 53 25 53 41 0 24 -12 23 -140 -17 -78 -24 -96 -26 -220 -22 -112 3 -149 8 -215 30 -90 30 -101 32 -111 15z" style="stroke: rgb(118, 146, 26); stroke-width: 0;"/>
    <path d="M 467 944 C 463 940 460 877 460 804 C 460 693 462 671 476 666 C 500 657 793 659 808 668 C 817 675 820 710 818 811 L 815 945 L 644 948 C 551 949 471 947 467 944 Z" style="stroke: rgb(118, 146, 26); stroke-width: 0;"/>
    <path d="M 770 810 L 770 710 L 640 710 L 510 710 L 510 810 L 510 910 L 640 910 L 770 910 L 770 810 Z" style="stroke: rgb(118, 146, 26); fill: rgb(193, 0, 0); stroke-width: 0;"/>
  </g>
  <path d="M 707.715 620.532 Z" style="stroke: black; fill: none;"/>
</svg>